# Alias OBJ Model File
# Exported from SketchUp, (c) 2000-2012 Trimble Navigation Limited
# File units = meters

mtllib 10000.mtl

g Mesh1 Model

usemtl FrontColor
v 0.155956 0.0127 -0.0659339
vt -6.14 2.59582
vn 0 -1 -0
v 0 0.0127 -0
vt 0 0
v 0 0.0127 -0.0659339
vt 0 2.59582
f 1/1/1 2/2/1 3/3/1

v 0.155956 0.0127 -0
vt -6.14 0
f 2/2/1 1/1/1 4/4/1

usemtl _1
vt 0 1.00754
vn -0 1 0
vt 1 1.00754
f 3/5/2 2/2/2 1/6/2

usemtl _
vt 0 1
vn -1 0 -0
v 0 0 -0
vt 0.5 0
vt 0.5 1
f 3/7/3 5/8/3 2/9/3

v 0 2.25597e-17 -0.0659339
vt 0 1.77636e-15
f 5/8/3 3/7/3 6/10/3

usemtl _1
vt 0 9.9407
vn 1 -0 0
vt 0 9.74663
vt -0.422772 9.9407
f 2/11/4 5/12/4 3/13/4

usemtl _1_
vt 0 2
vn 0 0 1
vt 1.00116 2.22557
vt 4.20145e-08 2.22557
f 5/14/5 4/15/5 2/16/5

v 0.155956 0 -0
vt 1.00116 2
f 4/15/5 5/14/5 7/17/5

usemtl BackColor
vt 6.14 0
vn -0 -0 -1
vt 6.14 0.5
f 7/18/6 5/2/6 4/19/6

usemtl _2
vn 0 -1 -3.42157e-16
v 0.155956 2.25597e-17 -0.0659339
vt -1 1.00754
vt -1 2.827e-19
f 5/2/7 8/20/7 7/21/7

f 8/20/7 5/2/7 6/5/7

usemtl _1
vt 0 9.00754
vn -0 1 3.42157e-16
vt 0 8
vt -1 9.00754
f 6/22/8 5/23/8 8/24/8

vt -0.422772 9.74663
f 6/25/4 3/13/4 5/12/4

usemtl _1_
vn 0 0 -1
vt -1.00116 2
vt 7.46328e-23 2
f 3/16/9 8/26/9 6/27/9

vt -1.00116 2.22557
f 8/26/9 3/16/9 1/28/9

usemtl _1
vn -0 -0 1
vt -1 9.74663
f 6/12/10 8/29/10 3/11/10

vt -1 9.9407
f 1/30/10 3/11/10 8/29/10

usemtl _
vn 1 0 -0
vt 1 1.77636e-15
vt 1 1
f 4/9/11 8/31/11 1/32/11

f 8/31/11 4/9/11 7/8/11

usemtl _1
vn -1 -0 0
vt 0.422772 9.74663
f 7/12/12 4/11/12 8/33/12

vt 0.422772 9.9407
f 1/34/12 8/33/12 4/11/12

vt 1 0
f 4/35/2 1/6/2 2/2/2

usemtl BackColor
vt 0 0.5
f 2/36/6 4/19/6 5/2/6

usemtl _1
vt -1 8
f 7/37/8 8/24/8 5/23/8

g Mesh2 Model

l 7 8

l 5 7

l 6 5

l 6 8

l 3 6

l 3 2

l 3 1

l 4 1

l 2 4

l 2 5

l 4 7

l 1 8

